<?xml version="1.0" encoding="utf-8"?>
<!-- Generator: Adobe Illustrator 25.0.0, SVG Export Plug-In . SVG Version: 6.00 Build 0)  -->
<svg version="1.1" id="Capa_1" xmlns="http://www.w3.org/2000/svg" xmlns:xlink="http://www.w3.org/1999/xlink" x="0px" y="0px"
	 viewBox="0 0 46.29 44.29" style="enable-background:new 0 0 46.29 44.29;" xml:space="preserve">
<style type="text/css">
	.st0{fill:none;stroke:#1D1D1B;stroke-width:3;stroke-miterlimit:10;}
	.st1{fill:#FFFFFF;}
	.st2{fill:none;stroke:#000000;stroke-width:3;stroke-miterlimit:10;}
</style>
<circle class="st0" cx="22.15" cy="22.15" r="21.65"/>
<path class="st1" d="M43.78,16.06l-6.64,0.82c-0.66,0.02-1.29,0.28-1.77,0.73c-0.98,0.98-0.98,2.56,0,3.54
	c0.47,0.47,1.11,0.74,1.77,0.73c2.15-0.05,4.3-0.18,6.44-0.37l-0.67-4.91c-0.24,0.07-0.48,0.12-0.72,0.16l0.67-0.09
	c-0.33,0.04-0.67,0.04-1,0v5c0.54,0,1.1,0,1.64,0l-0.67-0.08h0.08l-0.59-0.25h0.07l-0.51-0.4l0.06,0.05l-0.42-0.44v0.06l-0.34-1.26
	v0.06l0.73-1.76l-0.08,0.07l0.5-0.39l-0.27,0.16l0.6-0.25c-0.13,0.06-0.27,0.1-0.41,0.12l0.66-0.09H42.7c-1.38,0-2.5,1.11-2.5,2.5
	c0,0.67,0.26,1.3,0.73,1.77c0.48,0.45,1.11,0.71,1.77,0.73c0.26,0,0.53,0.06,0.79,0.06c0.96,0,1.84-0.51,2.32-1.34
	c0.63-1.17,0.43-2.61-0.51-3.55c-1.15-1.17-2.72-0.93-4.19-0.84c-0.66,0.01-1.29,0.28-1.77,0.74c-0.97,0.98-0.97,2.55,0,3.53
	c0.49,0.44,1.11,0.7,1.77,0.73c1.28,0.2,2.58-0.05,3.69-0.71c0.44-0.29,0.79-0.7,1-1.19c0.23-0.51,0.27-1.09,0.12-1.63
	c-0.32-1.07-1.29-1.81-2.4-1.85l-2.49-0.07l0.67,4.91c0.52-0.21,1.06-0.36,1.62-0.45l-0.67,0.09c0.36-0.05,0.72-0.07,1.08-0.06
	c1.38,0,2.5-1.12,2.5-2.5s-1.12-2.5-2.5-2.5c-0.5-0.03-1-0.03-1.5,0c-0.4,0-0.8,0.05-1.19,0.14c-0.71,0.24-1.32,0.71-1.72,1.35
	l0.39-0.51c-0.03,0.05-0.07,0.1-0.12,0.14l0.5-0.39c-0.05,0.03-0.1,0.06-0.15,0.08l0.6-0.25c-0.11,0.03-0.23,0.06-0.35,0.07
	l1.33,4.81l2.67-0.61c1.33-0.37,2.11-1.75,1.75-3.08c-0.4-1.31-1.75-2.07-3.08-1.74l-2.67,0.61c-1.33,0.36-2.12,1.74-1.75,3.07
	c0.17,0.63,0.59,1.17,1.15,1.5l0.6,0.25c0.44,0.12,0.89,0.12,1.33,0c0.35-0.06,0.69-0.18,1-0.36c0.48-0.29,0.87-0.68,1.16-1.16
	l-0.39,0.51L43.36,20l-0.51,0.39h0.09l-0.59,0.25h0.1l-0.67,0.09c0.64-0.05,1.29-0.05,1.93,0v-5c-1.15-0.03-2.29,0.17-3.36,0.6
	c-0.62,0.19-1.15,0.6-1.49,1.15c-0.27,0.49-0.38,1.05-0.3,1.6c0.17,1.23,1.21,2.15,2.45,2.16l2.49,0.07l-1.26-4.66
	c-0.11,0.08-0.23,0.15-0.36,0.21l0.6-0.25c-0.22,0.09-0.45,0.15-0.69,0.18l0.66-0.09c-0.46,0.05-0.92,0.05-1.38,0v5
	c0.65-0.07,1.3-0.1,1.95-0.09l-0.66-0.09c0.1,0.01,0.2,0.04,0.29,0.07l-0.59-0.25l0.09,0.05L41.64,21c0.04,0.03,0.08,0.06,0.12,0.1
	l-0.4-0.5c0.04,0.04,0.06,0.08,0.08,0.13l-0.25-0.6c0,0.05,0,0.1,0,0.15l-0.09-0.66v0.07l0.09-0.66c0.01,0.04,0.01,0.09,0,0.13
	l0.25-0.59v0.06l0.39-0.51v0.05l1.69-0.84l-0.79-0.06v5c0.73,0.01,1.44-0.19,2.07-0.56c0.63-0.36,1.1-0.94,1.32-1.63
	c0.19-0.7,0.11-1.45-0.24-2.09c-0.58-0.88-1.59-1.39-2.65-1.34h-1.36c-1.38-0.04-2.53,1.04-2.58,2.42
	c-0.02,0.73,0.27,1.43,0.81,1.92c0.49,0.44,1.11,0.7,1.77,0.73c0.8,0.07,1.6-0.02,2.37-0.26c1.19-0.34,1.96-1.51,1.79-2.74
	c-0.15-1.24-1.2-2.17-2.45-2.17c-2.14,0.2-4.29,0.32-6.44,0.37v5l6.64-0.82c0.65-0.04,1.27-0.31,1.74-0.77
	c0.46-0.47,0.72-1.11,0.73-1.77c0-0.66-0.26-1.3-0.73-1.77c-0.46-0.48-1.1-0.74-1.77-0.73H43.78z"/>
<path class="st1" d="M43.7,15.22c-1.68,0-3.37,0-5,0.06c-0.66,0.02-1.29,0.28-1.77,0.73c-0.98,0.98-0.98,2.56,0,3.54
	c0.47,0.47,1.11,0.74,1.77,0.73c0.61,0.01,1.21-0.1,1.77-0.35c0.39-0.17,0.81-0.29,1.23-0.36l-0.66,0.09c0.54-0.04,1.07-0.04,1.61,0
	c1.17,0.05,2.27-0.54,2.87-1.54c0.4-0.68,0.44-1.5,0.13-2.22c-0.27-0.72-0.87-1.27-1.62-1.45c-1.2-0.25-2.45-0.23-3.64,0.07
	c-1.33,0.37-2.11,1.74-1.75,3.07c0.3,1.09,1.29,1.84,2.42,1.84c0.54,0,1.1,0,1.65,0l-1.27-0.34l0,0l-0.9-0.89v0.05l-0.34-1.26
	c0.01,0.59,0.16,1.17,0.45,1.68c0.29,0.5,0.71,0.91,1.22,1.19c0.58,0.33,1.27,0.42,1.92,0.26c0.66-0.15,1.23-0.56,1.59-1.13
	c0.34-0.58,0.43-1.28,0.25-1.93c-0.17-0.61-0.57-1.12-1.11-1.45l-0.13-0.08l0.51,0.39c-0.06-0.04-0.11-0.09-0.15-0.15l0.39,0.5
	c-0.03-0.04-0.06-0.08-0.08-0.13l0.25,0.6c-0.03-0.07-0.05-0.14-0.06-0.21l0.09,0.66c-0.01-0.49-0.13-0.97-0.35-1.4
	c-0.21-0.41-0.53-0.76-0.93-1c-0.5-0.25-1.05-0.37-1.61-0.37h-1.34l0.66,4.91l0.55-0.1l-0.67,0.09c0.52-0.07,1.06-0.07,1.58,0
	l-0.71-0.08h0.18l-1.48-3.64v0.05l0.39-0.5l-0.09,0.09l0.51-0.39l-0.1,0.06l0.59-0.25l-0.25,0.07l0.66-0.09
	c-0.33,0.02-0.67,0.02-1,0c-0.55,0-1.09,0.04-1.63,0.13c-0.69,0.1-1.28,0.49-2,0.61l0.67-0.09c-0.11,0.01-0.23,0.01-0.34,0v5
	c1.68-0.08,3.37-0.1,5-0.06c0.71,0.02,1.39-0.25,1.89-0.75c0.47-0.47,0.73-1.1,0.73-1.76c-0.02-1.37-1.13-2.48-2.5-2.5H43.7z"/>
<path class="st1" d="M43.71,22.35c3.21,0,3.22-5,0-5S40.48,22.35,43.71,22.35z"/>
<path class="st1" d="M43.71,22.59c3.21,0,3.22-5,0-5S40.48,22.59,43.71,22.59z"/>
<line class="st2" x1="38.2" y1="22.15" x2="6.45" y2="22.15"/>
</svg>
