<?xml version="1.0" encoding="utf-8"?>
<!-- Generator: Adobe Illustrator 25.0.0, SVG Export Plug-In . SVG Version: 6.00 Build 0)  -->
<svg version="1.1" id="Capa_1" xmlns="http://www.w3.org/2000/svg" xmlns:xlink="http://www.w3.org/1999/xlink" x="0px" y="0px"
	 viewBox="0 0 50 50" style="enable-background:new 0 0 50 50;" xml:space="preserve">
<style type="text/css">
	.st0{fill:none;stroke:#000000;stroke-width:3;stroke-miterlimit:10;}
	.st1{fill:#FFFFFF;}
</style>
<g id="Capa_1_1_">
	<circle class="st0" cx="25.62" cy="25.16" r="21.65"/>
	<g>
		<g>
			<path class="st1" d="M44.14,7.48c-3.13,2.01-5.76,4.71-7.63,7.91c1.44,0.84,2.88,1.68,4.32,2.52c0.44-0.95,1-1.84,1.61-2.7
				c0.08-0.1,0.48-0.52,0.48-0.65c0,0.09-0.29,0.37-0.06,0.08c0.09-0.12,0.19-0.24,0.28-0.35c0.34-0.42,0.68-0.84,1.02-1.26
				c1.34-1.65,2.72-3.27,4.35-4.65c-1.18-1.18-2.36-2.36-3.54-3.54c-3.06,2.73-6.1,5.49-9.11,8.27c1.18,1.18,2.36,2.36,3.54,3.54
				c2.41-2.53,4.83-5.06,7.24-7.6c0.9-0.95,1.01-2.61,0-3.54c-1.03-0.94-2.51-0.95-3.54,0c-2.01,1.87-4.03,3.74-6.04,5.61
				c-0.96,0.89-0.97,2.65,0,3.54c1.08,0.99,2.45,0.89,3.54,0c0.19-0.16,0.38-0.31,0.58-0.47c0.1-0.08,0.19-0.15,0.29-0.23
				c0.28-0.22-0.02-0.05-0.07,0.05c0.06-0.15,0.46-0.35,0.59-0.44c0.22-0.16,0.45-0.33,0.68-0.49c0.83-0.59,1.69-1.14,2.56-1.67
				c-1.01-1.31-2.02-2.62-3.03-3.93c-1.85,1.72-3.64,3.47-5.07,5.57c-0.6,0.88-0.38,2.32,0.39,3.03c0.77,0.7,2.11,1.05,3.03,0.39
				c1.89-1.36,3.72-2.82,5.44-4.39c0.97-0.88,0.96-2.65,0-3.54c-1.04-0.95-2.5-0.94-3.54,0c-0.76,0.69-1.54,1.37-2.34,2.02
				c-0.19,0.16-0.39,0.31-0.58,0.47c-0.1,0.08-0.2,0.15-0.29,0.23c-0.28,0.22,0.35-0.26,0.06-0.05c-0.42,0.32-0.85,0.64-1.28,0.95
				c1.14,1.14,2.28,2.28,3.42,3.42c0.13-0.19,0.46-0.5,0.51-0.72c-0.03,0.12-0.28,0.35-0.06,0.09c0.09-0.11,0.19-0.23,0.28-0.34
				c0.36-0.43,0.74-0.84,1.13-1.25c0.78-0.81,1.61-1.57,2.43-2.34c0.91-0.85,0.93-2.34,0.2-3.28c-0.75-0.97-2.15-1.29-3.23-0.64
				c-1.98,1.19-3.86,2.55-5.65,4.03c1.18,1.18,2.36,2.36,3.54,3.54c2.01-1.87,4.03-3.74,6.04-5.61c-1.18-1.18-2.36-2.36-3.54-3.54
				c-2.41,2.53-4.83,5.06-7.24,7.6c-0.9,0.95-1.01,2.61,0,3.54c1.03,0.95,2.51,0.95,3.54,0c3.01-2.78,6.05-5.54,9.11-8.27
				c0.98-0.87,0.96-2.66,0-3.54c-1.07-0.98-2.46-0.9-3.54,0c-1.68,1.41-3.08,3.09-4.46,4.79c-1.47,1.81-3.01,3.63-4,5.76
				c-0.29,0.62-0.44,1.24-0.25,1.93c0.16,0.58,0.61,1.21,1.15,1.49c1.2,0.63,2.71,0.31,3.42-0.9c0.21-0.35,0.42-0.7,0.65-1.04
				c0.11-0.16,0.21-0.32,0.32-0.47c0.08-0.11,0.27-0.49,0.39-0.53c-0.21,0.27-0.26,0.33-0.14,0.18c0.05-0.06,0.1-0.13,0.15-0.19
				c0.14-0.17,0.28-0.34,0.42-0.5c0.25-0.29,0.51-0.57,0.77-0.85c0.53-0.55,1.09-1.07,1.68-1.56c0.15-0.12,0.33-0.34,0.51-0.41
				c-0.29,0.22-0.33,0.25-0.12,0.09c0.04-0.03,0.09-0.06,0.13-0.1c0.35-0.26,0.71-0.5,1.08-0.74c1.1-0.71,1.65-2.25,0.9-3.42
				C46.85,7.28,45.31,6.73,44.14,7.48L44.14,7.48z"/>
		</g>
	</g>
	<polyline class="st0" points="13.18,15.06 25.46,27.33 44.39,8.32 	"/>
</g>
<g id="Capa_2_1_">
</g>
<path class="st0" d="M25.46,27.33L15.41,37.38L25.46,27.33z"/>
<line class="st0" x1="25.46" y1="27.33" x2="36.01" y2="37.88"/>
</svg>
